<svg width="24" height="25" viewBox="0 0 24 25" fill="none" xmlns="http://www.w3.org/2000/svg">
<path fill-rule="evenodd" clip-rule="evenodd" d="M4.25 15.3333C4.25 11.053 7.71979 7.58325 12 7.58325C16.2802 7.58325 19.75 11.053 19.75 15.3333C19.75 19.6135 16.2802 23.0833 12 23.0833C7.71979 23.0833 4.25 19.6135 4.25 15.3333ZM12 9.08325C8.54822 9.08325 5.75 11.8815 5.75 15.3333C5.75 18.785 8.54822 21.5833 12 21.5833C15.4518 21.5833 18.25 18.785 18.25 15.3333C18.25 11.8815 15.4518 9.08325 12 9.08325Z" fill="#141416"/>
<path fill-rule="evenodd" clip-rule="evenodd" d="M12 13.5833C12.4142 13.5833 12.75 13.919 12.75 14.3333V16.3333C12.75 16.7475 12.4142 17.0833 12 17.0833C11.5858 17.0833 11.25 16.7475 11.25 16.3333V14.3333C11.25 13.919 11.5858 13.5833 12 13.5833Z" fill="#141416"/>
<path fill-rule="evenodd" clip-rule="evenodd" d="M12 3.08325C10.2051 3.08325 8.75 4.53833 8.75 6.33325V9.33325C8.75 9.74747 8.41421 10.0833 8 10.0833C7.58579 10.0833 7.25 9.74747 7.25 9.33325V6.33325C7.25 3.7099 9.37665 1.58325 12 1.58325C14.6234 1.58325 16.75 3.7099 16.75 6.33325V9.33325C16.75 9.74747 16.4142 10.0833 16 10.0833C15.5858 10.0833 15.25 9.74747 15.25 9.33325V6.33325C15.25 4.53833 13.7949 3.08325 12 3.08325Z" fill="#141416"/>
</svg>
