<svg width="30" height="29" viewBox="0 0 30 29" fill="none" xmlns="http://www.w3.org/2000/svg">
<path d="M14.5914 0.0769037C22.5572 0.076904 29.0146 6.53439 29.0146 14.5001C29.0146 22.4658 22.5572 28.9233 14.5914 28.9233L3.77404 28.9233C1.78261 28.9233 0.16824 27.3089 0.16824 25.3175L0.168241 14.5001C0.168241 6.53438 6.62573 0.0769033 14.5914 0.0769037Z" fill="#24B34C"/>
<g clip-path="url(#clip0_2716_1053)">
<path d="M10.0944 12.3712C10.0944 11.5774 10.3002 10.9796 10.7118 10.5778C11.1234 10.176 11.6134 9.97511 12.1818 9.97511C12.76 9.97511 13.544 10.0731 14.5338 10.2691C15.5236 10.4651 16.2684 10.568 16.7682 10.5778C17.6012 10.421 18.395 10.2299 19.1496 10.0045C19.228 10.2593 19.2672 10.5778 19.2672 10.96C19.2672 11.7538 19.0369 12.3516 18.5763 12.7534C18.1255 13.1552 17.5473 13.3561 16.8417 13.3561C16.6653 13.3561 16.4301 13.3463 16.1361 13.3267C15.5971 16.1589 15.3276 17.7416 15.3276 18.0748C15.3276 19.0254 15.4746 19.7359 15.7686 20.2063C15.1806 20.6473 14.5681 20.8678 13.9311 20.8678C13.2941 20.8678 12.8384 20.6865 12.564 20.3239C12.2896 19.9515 12.1524 19.4027 12.1524 18.6775C12.1524 17.9425 12.4366 15.9923 13.005 12.8269C11.8976 12.9739 10.9666 13.1405 10.212 13.3267C10.1336 13.0817 10.0944 12.7632 10.0944 12.3712Z" fill="white"/>
</g>
<defs>
<clipPath id="clip0_2716_1053">
<rect width="14.4232" height="14.4232" fill="white" transform="translate(7.37988 7.28857)"/>
</clipPath>
</defs>
</svg>
