<svg width="24" height="25" viewBox="0 0 24 25" fill="none" xmlns="http://www.w3.org/2000/svg">
<path fill-rule="evenodd" clip-rule="evenodd" d="M18 5.83325L6 5.83325C4.61929 5.83325 3.5 6.95254 3.5 8.33325L3.5 16.3333C3.5 17.714 4.61929 18.8333 6 18.8333H18C19.3807 18.8333 20.5 17.714 20.5 16.3333L20.5 8.33325C20.5 6.95254 19.3807 5.83325 18 5.83325ZM6 4.33325C3.79086 4.33325 2 6.12411 2 8.33325L2 16.3333C2 18.5424 3.79086 20.3333 6 20.3333H18C20.2091 20.3333 22 18.5424 22 16.3333L22 8.33325C22 6.12411 20.2091 4.33325 18 4.33325L6 4.33325Z" fill="#141416"/>
<path fill-rule="evenodd" clip-rule="evenodd" d="M8.46967 9.80292C8.76256 9.51003 9.23744 9.51003 9.53033 9.80292L12 12.2726L14.4697 9.80292C14.7626 9.51003 15.2374 9.51003 15.5303 9.80292C15.8232 10.0958 15.8232 10.5707 15.5303 10.8636L12.5303 13.8636C12.2374 14.1565 11.7626 14.1565 11.4697 13.8636L8.46967 10.8636C8.17678 10.5707 8.17678 10.0958 8.46967 9.80292Z" fill="#141416"/>
</svg>
